<?xml version="1.0" ?><!DOCTYPE svg  PUBLIC '-//W3C//DTD SVG 1.1//EN'  'http://www.w3.org/Graphics/SVG/1.1/DTD/svg11.dtd'><svg height="128px" style="shape-rendering:geometricPrecision; text-rendering:geometricPrecision; image-rendering:optimizeQuality; fill-rule:evenodd; clip-rule:evenodd" version="1.1" viewBox="0 0 16559 18626" width="114px" xml:space="preserve" xmlns="http://www.w3.org/2000/svg" xmlns:xlink="http://www.w3.org/1999/xlink"><defs><style type="text/css">
   <![CDATA[
    .fil2 {fill:#152B44}
    .fil1 {fill:#1C3B5C}
    .fil8 {fill:#4D4D4D}
    .fil0 {fill:#53B4ED}
    .fil7 {fill:#AFB0B5}
    .fil5 {fill:#E1E3E8}
    .fil4 {fill:#F2B22E}
    .fil3 {fill:#FFC42E}
    .fil6 {fill:white}
   ]]>
  </style></defs><g id="Layer_x0020_1"><g id="_551037232"><path class="fil0" d="M9099 226l6640 3833c522,302 820,818 820,1420l0 7667c0,602 -298,1119 -820,1420l-6640 3834c-521,301 -1118,301 -1639,0l-6640 -3834c-522,-301 -820,-818 -820,-1420l0 -7667c0,-602 298,-1118 820,-1420l6640 -3833c521,-301 1118,-301 1639,0z"/><g><g><path class="fil1" d="M9107 6366c370,70 724,186 1055,342l663 -648 544 395 543 395 -411 833c252,269 472,570 651,895l918 -134 208 639 208 639 -822 431c22,182 34,367 34,554 0,188 -12,373 -34,554l822 431 -208 639 -208 640 -918 -135c-179,326 -399,627 -652,896l412 832 -543 395 -544 395 -664 -648c-331,156 -684,272 -1054,342l-155 915 -673 0 -672 0 -155 -914c-370,-71 -724,-187 -1055,-343l-663 648 -544 -395 -543 -395 411 -832c-252,-269 -472,-570 -651,-896l-918 135 -208 -640 -208 -639 822 -431c-23,-181 -34,-366 -34,-554 0,-187 11,-372 34,-554l-822 -431 208 -639 208 -639 918 134c179,-325 399,-626 651,-895l-412 -833 544 -395 544 -395 664 649c331,-156 684,-273 1054,-343l155 -915 672 0 673 0 155 915zm-828 1726c1445,0 2615,1171 2615,2615 0,1445 -1170,2615 -2615,2615 -1444,0 -2615,-1170 -2615,-2615 0,-1444 1171,-2615 2615,-2615z"/><path class="fil2" d="M8279 7469c1789,0 3239,1450 3239,3238 0,1789 -1450,3239 -3239,3239 -1788,0 -3238,-1450 -3238,-3239 0,-1788 1450,-3238 3238,-3238zm0 623c1445,0 2615,1171 2615,2615 0,1445 -1170,2615 -2615,2615 -1444,0 -2615,-1170 -2615,-2615 0,-1444 1171,-2615 2615,-2615z"/></g><path class="fil3" d="M7308 10529l1943 0c126,0 230,104 230,231l0 5188c0,581 -476,1057 -1057,1057l-289 0c-581,0 -1057,-476 -1057,-1057l0 -5188c0,-127 104,-231 230,-231z"/><path class="fil4" d="M9481 15796c-164,-78 -277,-233 -277,-410l0 -4857 47 0c126,0 230,113 230,252l0 5015zm-2403 0l0 -5015c0,-139 104,-252 230,-252l47 0 0 4857c0,177 -113,332 -277,410z"/><path class="fil4" d="M7853 10529l853 0 0 5718c0,234 -192,426 -426,426l-1 0c-234,0 -426,-192 -426,-426l0 -5718z"/><path class="fil3" d="M7082 10529l2395 0c107,0 195,69 195,152l0 396c0,84 -88,152 -195,152l-2395 0c-107,0 -195,-68 -195,-152l0 -396c0,-83 88,-152 195,-152z"/><rect class="fil5" height="1765" width="830" x="7864" y="3687"/><polygon class="fil6" points="7864,3687 8279,3687 8694,3687 8952,3068 8694,1621 8279,1621 7864,1621 7607,3068 "/><path class="fil5" d="M7864 8125c279,-43 556,-43 830,0l0 2404 -830 0 0 -2404z"/><path class="fil7" d="M7864 8125c279,-43 556,-43 830,0l0 528c-215,-62 -484,-75 -830,0l0 -528z"/></g><g><g><rect class="fil3" height="8979" width="1696" x="14101" y="762"/><path class="fil6" d="M15621 9588l-289 0 0 -201 289 0 0 201zm0 -8382l-845 0 0 -200 845 0 0 200zm0 447l-289 0 0 -201 289 0 0 201zm0 446l-289 0 0 -200 289 0 0 200zm0 447l-289 0 0 -201 289 0 0 201zm0 446l-289 0 0 -200 289 0 0 200zm0 413l-845 0 0 -201 845 0 0 201zm0 446l-289 0 0 -200 289 0 0 200zm0 447l-289 0 0 -201 289 0 0 201zm0 446l-289 0 0 -200 289 0 0 200zm0 447l-289 0 0 -201 289 0 0 201zm0 412l-845 0 0 -200 845 0 0 200zm0 447l-289 0 0 -201 289 0 0 201zm0 446l-289 0 0 -200 289 0 0 200zm0 447l-289 0 0 -201 289 0 0 201zm0 446l-289 0 0 -200 289 0 0 200zm0 413l-845 0 0 -201 845 0 0 201zm0 446l-289 0 0 -200 289 0 0 200zm0 447l-289 0 0 -201 289 0 0 201zm0 446l-289 0 0 -200 289 0 0 200z"/><rect class="fil4" height="8979" width="140" x="15657" y="762"/></g><g><rect class="fil3" height="7778" width="1038" x="762" y="9237"/><path class="fil8" d="M762 17015l1037 0 0 647c0,111 -90,201 -201,201l-635 0c-111,0 -201,-90 -201,-201l0 -647z"/><polygon class="fil6" points="1021,8165 1540,8165 1799,9237 1281,9237 762,9237 "/><polygon class="fil8" points="1281,7117 1021,8165 1281,8165 1540,8165 "/><rect class="fil4" height="7778" width="318" x="1482" y="9237"/><polygon class="fil5" points="1015,8165 1141,8165 1015,9237 762,9237 "/></g></g></g></g></svg>