<?xml version="1.0" encoding="utf-8"?>
<!-- Generator: Adobe Illustrator 25.0.0, SVG Export Plug-In . SVG Version: 6.00 Build 0)  -->
<svg version="1.1" id="Layer_1" xmlns="http://www.w3.org/2000/svg" xmlns:xlink="http://www.w3.org/1999/xlink" x="0px" y="0px"
	 viewBox="0 0 512 512" style="enable-background:new 0 0 512 512;" xml:space="preserve">
<style type="text/css">
	.st0{fill:#31344E;}
	.st1{fill:#C1945D;}
	.st2{fill:#CEA713;}
	.st3{fill:#DEB60C;}
	.st4{fill:#DDB60B;}
	.st5{fill:#CDA711;}
	.st6{fill:#646666;}
	.st7{fill:#AD921E;}
	.st8{fill:#AD911E;}
	.st9{fill:#EFDD8D;}
	.st10{fill:#DBA777;}
	.st11{fill:#FBF8ED;}
	.st12{fill:#797B7C;}
</style>
<circle class="st0" cx="256" cy="256" r="200"/>
<g>
	<g>
		<path class="st1" d="M256.1,410.9c-12.4,0-24.9-0.2-37.3,0.1c-4.4,0.1-6.9-1.5-9.1-5.3c-23.9-40.2-47.9-80.3-72.1-120.3
			c-2.5-4.2-1.7-6.6,1.6-9.7c19.6-18.7,39.1-37.6,58.4-56.6c3.3-3.2,5-2.9,7.9,0.3c15.1,16.2,30.7,32,45.7,48.3
			c3.8,4.2,5.8,3.7,9.3-0.1c14.8-15.9,29.9-31.5,44.7-47.3c3.3-3.5,5.3-4.7,9.4-0.6c19.1,18.9,38.5,37.5,58.1,56
			c3.7,3.5,3.9,5.9,1.3,10.3c-23.6,39.3-47.1,78.7-70.2,118.3c-3,5.2-6.4,7.2-12.4,6.9C279.6,410.6,267.9,410.9,256.1,410.9z
			 M244.6,336c0-11.1-0.8-22.2,0.2-33.2c1.3-14.2-1.3-25.5-14.2-34.1c-9.4-6.3-17.4-14.9-25.7-22.8c-3.2-3-5-2.4-7.7,0.4
			c-10.9,11.1-21.8,22.3-33.1,33c-4.5,4.2-4.8,7.4-1.6,12.6c17.2,28.5,34.9,56.8,50.7,86.1c6.2,11.5,13,16.2,25.6,14.6
			c4.7-0.6,6.1-1.8,6-6.4C244.5,369.5,244.6,352.7,244.6,336z"/>
		<path class="st2" d="M133.3,270c0-27.8,0.1-53.8-0.1-79.7c0-3.1,1-4.4,4-4.9c4.4-0.7,8.7-1.7,12.9-3.9c-5.5,0-11,0-16.5,0
			c-4.3,0-8.4-0.7-9.6-5.7c-1.1-4.7,1-7.9,5.8-9c3.1-0.7,2.2-3,1.8-4.9c-3.6-19.5-7.2-39-10.7-58.6c-0.5-3-1.7-4.3-5.1-4.9
			c-9.3-1.5-14.8-9.2-13.2-17.2c1.7-8.3,9.2-13.4,17.6-12c8.4,1.5,13.4,9.4,11,19.1c-1,4.1,1.5,4.7,3.6,6
			c19.2,11.8,38.5,23.6,57.9,35.1c4.3,2.5,5.7,5.3,5.7,10.2c-0.3,20.5-0.1,41.1-0.1,61.7c0,2.6,0.5,5.3-1.8,7.6
			C175.7,228.9,155.2,248.8,133.3,270z M116.6,78.7c-2.8,0.5-4.9,2.4-4.6,5.8c0.3,3.3,2.6,5.3,5.9,5c2.9-0.3,4.8-2.3,4.7-5.5
			C122.6,80.5,120.6,78.8,116.6,78.7z"/>
		<path class="st3" d="M361.2,181.5c1.1,1.4,1.2,1.6,1.4,1.7c5.2,1.2,12.5,0.7,15.2,4c3.4,4,1,11.3,1,17.1c0.1,21.2,0,42.5,0,63.8
			c-2.7,0.6-3.6-1.7-4.9-2.9c-18.7-18-37.4-36.2-56.2-54.1c-2.9-2.7-4-5.5-4-9.4c0.2-20.6,0.2-41.2,0-61.7
			c-0.1-4.9,1.3-7.7,5.6-10.2c19.3-11.4,38.3-23.2,57.4-34.7c3.1-1.8,5-3.1,3.7-7.7c-2.3-8.4,3.4-16.4,11.4-17.8
			c8.3-1.4,15.4,3.3,17.4,11.4c1.9,8-3.1,16-11.8,17.5c-4.9,0.8-5.9,3-6.7,7.3c-3.2,18.5-6.8,36.8-10.2,55.3c-0.4,2.4-2,5.2,2.4,6.4
			c3.6,1,5.5,4,4.8,7.9c-0.7,4.1-3.7,6.2-7.7,6.3C374.1,181.6,368.1,181.5,361.2,181.5z M395.4,89.7c2.9-0.7,5.3-2.2,5.2-5.8
			c-0.1-3.1-2-5-5.2-5.1c-3.2-0.1-5.2,1.7-5.4,4.8C389.6,87.2,391.8,88.9,395.4,89.7z"/>
		<path class="st4" d="M236.3,63c-5.4-10.4-2.7-22.2,6.7-28.7c9.3-6.5,22-5,29.6,3.3c7.6,8.5,8.3,21.5,0.2,29.6
			c-4.3,4.3-3.6,6.9-0.8,11.2c10.9,16.6,21.3,33.5,32.1,50.2c2.1,3.2,3,6.4,2.9,10.1c-0.2,9.9-0.1,19.9-0.1,29.8
			c0,11.5,0,11.5-10.8,14.7c-2.7-0.3-4.8,1-8.1,2.6c3.7,0.3,6,0.6,8.4-0.3c10.6-0.8,9.9-0.7,10.8,10c0.7,9.2-2.4,15.5-8.9,21.9
			c-13.2,13-25.7,26.6-38.3,40.3c-3.2,3.5-5,3.6-8.3,0c-14.4-15.6-29-31-43.6-46.4c-2.2-2.3-3.4-4.5-3.2-7.7c0.2-3.4,0.2-6.8,0-10.2
			c-0.2-4.7-0.5-9.2,6.7-7.6c1.4,0.3,3.4-0.8,4.3-2.5c1.9,0,3.3,0.9,3.1,2.8c-0.2,1.9-2.1,1.1-3.3,1.2c-3.1,0.2-7.1-0.2-7.5,3.9
			c-0.7,6.9-1.5,13.8,5.5,18.9c9.4,7,17.8,15.2,26.3,23.3c4.6,4.5,9.7,8.4,15.5,13.4c0-62.2,0-123.4,0-184.5
			c5.9-1.1,10.3-4,10.1-10.5c-0.2-6-4.2-9-10.1-9.7c-0.2-7.6-1.7-8.5-8.3-5.5c-4.8,2.2-7.9,5.5-9.6,10.7
			C235.8,52.7,237,57.9,236.3,63z"/>
		<path class="st5" d="M255.5,62.6c0,61.1,0,122.3,0,184.5c-5.8-5-10.9-9-15.5-13.4c-8.4-8.1-16.9-16.3-26.3-23.3
			c-7-5.2-6.2-12.1-5.5-18.9c0.4-4.1,4.4-3.7,7.5-3.9c1.2-0.1,3.1,0.7,3.3-1.2c0.2-1.8-1.2-2.8-3.1-2.8c-13.6-3.8-9.9-1.2-11.3-13.7
			c-2.9-25.4,3.1-47.7,19.5-67.5c6.1-7.4,10.2-16.4,15.8-24.3c3-4.2,3.5-7.2-0.8-10.5c-1.4-1-2.5-2.6-2.7-4.5
			c0.6-5.1-0.5-10.3,1.2-15.4c1.7-5.1,4.8-8.5,9.6-10.7c6.6-3,8-2.1,8.3,5.5c-5.1,1.5-9.2,4.2-9.2,10
			C246.3,58.2,250.5,61,255.5,62.6z"/>
		<path class="st6" d="M217.4,416.3c26.4,0,51.6,0,77.9,0c-13.3,20.6-26,40.5-39.5,61.4C242.9,457,230.5,437.1,217.4,416.3z
			 M246.6,447.1c1.6-7.1-1.2-12.2-0.8-17.6c0.4-5.1-5.4-8.2-10-6c-1.5,0.7-1.2,1.7-0.6,2.7C238.7,432.8,242.3,439.2,246.6,447.1z"/>
		<path class="st7" d="M200.1,125.6c-4.9-2.8-9.8-6.1-15.1-8.5c-6.2-2.7-6.9-5.6-2.3-10.5c3.8-4.1,6.3-11.5,10.5-12.6
			c4.9-1.2,9.7,5.4,14.9,7.8c5.3,2.5,6.5,5.3,2.5,10.1c-2.9,3.4-4.9,7.5-7.4,11.3C202.5,124.3,202,125.8,200.1,125.6z"/>
		<path class="st8" d="M318.7,93.3c2.1-0.5,2.5,1.1,3.3,2c14.7,17,14.7,16.9-4.8,27.9c-4.2,2.4-6.6,2.6-8.9-2.1
			c-2.6-5.2-8.7-10.4-8.1-14.9c0.6-4.7,8.8-6.6,13.6-9.8C315.4,95.3,317.2,94.3,318.7,93.3z"/>
		<path class="st9" d="M296.4,185.7c-2.3,0.9-4.7,0.6-8.4,0.3c3.3-1.6,5.4-2.9,8.1-2.6C296.2,184.2,296.3,184.9,296.4,185.7z"/>
		<path class="st10" d="M244.6,336c0,16.7-0.1,33.4,0.1,50.1c0.1,4.6-1.3,5.8-6,6.4c-12.6,1.6-19.4-3.1-25.6-14.6
			c-15.8-29.3-33.5-57.6-50.7-86.1c-3.1-5.2-2.8-8.3,1.6-12.6c11.4-10.7,22.2-21.8,33.1-33c2.7-2.8,4.5-3.5,7.7-0.4
			c8.3,7.9,16.3,16.5,25.7,22.8c12.9,8.6,15.4,20,14.2,34.1C243.8,313.8,244.6,325,244.6,336z"/>
		<path class="st11" d="M116.6,78.7c4,0.1,6,1.7,6.1,5.3c0.1,3.2-1.8,5.1-4.7,5.5c-3.4,0.4-5.6-1.7-5.9-5
			C111.7,81.1,113.8,79.3,116.6,78.7z"/>
		<path class="st12" d="M246.6,447.1c-4.4-7.9-7.9-14.4-11.4-20.8c-0.5-1-0.9-2,0.6-2.7c4.6-2.3,10.4,0.9,10,6
			C245.4,435,248.2,440.1,246.6,447.1z"/>
	</g>
</g>
</svg>
